<svg width="32" height="32" viewBox="0 0 32 32" fill="none" xmlns="http://www.w3.org/2000/svg">
  <!-- Film strip background -->
  <rect x="4" y="8" width="24" height="16" rx="2" fill="#1f2937"/>
  
  <!-- Film holes -->
  <rect x="6" y="4" width="2" height="2" rx="1" fill="#6b7280"/>
  <rect x="6" y="6" width="2" height="2" rx="1" fill="#6b7280"/>
  <rect x="6" y="8" width="2" height="2" rx="1" fill="#6b7280"/>
  <rect x="6" y="10" width="2" height="2" rx="1" fill="#6b7280"/>
  <rect x="6" y="12" width="2" height="2" rx="1" fill="#6b7280"/>
  <rect x="6" y="14" width="2" height="2" rx="1" fill="#6b7280"/>
  <rect x="6" y="16" width="2" height="2" rx="1" fill="#6b7280"/>
  <rect x="6" y="18" width="2" height="2" rx="1" fill="#6b7280"/>
  <rect x="6" y="20" width="2" height="2" rx="1" fill="#6b7280"/>
  <rect x="6" y="22" width="2" height="2" rx="1" fill="#6b7280"/>
  <rect x="6" y="24" width="2" height="2" rx="1" fill="#6b7280"/>
  <rect x="6" y="26" width="2" height="2" rx="1" fill="#6b7280"/>
  
  <rect x="24" y="4" width="2" height="2" rx="1" fill="#6b7280"/>
  <rect x="24" y="6" width="2" height="2" rx="1" fill="#6b7280"/>
  <rect x="24" y="8" width="2" height="2" rx="1" fill="#6b7280"/>
  <rect x="24" y="10" width="2" height="2" rx="1" fill="#6b7280"/>
  <rect x="24" y="12" width="2" height="2" rx="1" fill="#6b7280"/>
  <rect x="24" y="14" width="2" height="2" rx="1" fill="#6b7280"/>
  <rect x="24" y="16" width="2" height="2" rx="1" fill="#6b7280"/>
  <rect x="24" y="18" width="2" height="2" rx="1" fill="#6b7280"/>
  <rect x="24" y="20" width="2" height="2" rx="1" fill="#6b7280"/>
  <rect x="24" y="22" width="2" height="2" rx="1" fill="#6b7280"/>
  <rect x="24" y="24" width="2" height="2" rx="1" fill="#6b7280"/>
  <rect x="24" y="26" width="2" height="2" rx="1" fill="#6b7280"/>
  
  <!-- Movie screen -->
  <rect x="8" y="10" width="16" height="12" rx="1" fill="#111827"/>
  
  <!-- Play button -->
  <path d="M14 16L18 18L14 20V16Z" fill="#fbbf24"/>
  
  <!-- Film strip edges -->
  <rect x="4" y="6" width="24" height="2" fill="#374151"/>
  <rect x="4" y="24" width="24" height="2" fill="#374151"/>
</svg>
